<?xml version="1.0" encoding="UTF-8"?>
<!-- Created with Inkscape (http://www.inkscape.org/) -->
<svg width="80mm" height="55mm" version="1.1" viewBox="0 0 302.36 207.87" xmlns="http://www.w3.org/2000/svg">
 <g transform="matrix(2.1219 0 0 2.1961 -274.59 -429.73)">
  <g transform="matrix(.59514 0 0 .76072 80.668 27.916)">
   <g transform="translate(-1.0033 5.769)" stroke-width=".96675">
    <path d="m162.05 251.03c-0.28158-0.45356 0.39688-2.8463 1.5076-5.3171s2.6646-6.1238 3.4529-8.1178l1.4333-3.6253h23.232c19.092 0 23.924 0.2771 27.118 1.5551 2.1376 0.8553 3.8808 1.8341 3.8738 2.1752-7e-3 0.34105-2.5669 3.6242-5.6886 7.296l-5.6759 6.6759-24.371 0.0913c-13.404 0.0503-24.601-0.27978-24.883-0.73334z"/>
    <path d="m148.72 246.3c1.2815-3.3232 4.0409-10.393 6.1322-15.71l3.8022-9.6675 159.63-0.49453-1.0587 3.1475c-0.58228 1.7311-1.4858 3.6936-2.0078 4.3611-0.75061 0.95975-16.502 1.1489-75.296 0.90405-51.78-0.21561-74.593 3e-3 -75.159 0.71987-0.44638 0.56619-2.6744 5.9236-4.9512 11.905l-4.1396 10.876h-9.2855z"/>
    <path d="m137.16 317.89c0.37157-1.2222 1.9062-5.1478 3.4103-8.7236 1.5041-3.5758 2.4325-6.6715 2.063-6.8794-0.36945-0.20791-6.3272-0.97935-13.239-1.7143-12.216-1.299-12.406-1.3537-6.7672-1.958 3.1903-0.34194 14.836-0.66894 25.879-0.72665l20.078-0.10492-0.6066 2.4169-0.60659 2.4169h13.67c9.6276 0 14.643-0.40632 16.959-1.374 5.5487-2.3184 8.1982-10.158 4.5491-13.461-1.4746-1.3345-4.1024-1.6-15.839-1.6-13.475 0-14.093 0.0857-14.601 2.0276-0.52404 2.004-0.77766 1.8012-22.106 1.4711-49.367-0.76412-75.708-2.2847-5.5339-5.0414l16.042-0.6302 1.1177-3.0908c0.61471-1.7 1.1177-3.3862 1.1177-3.7473s-6.1993-0.68889-13.776-0.72859c-7.5769-0.0397-19.432-0.60863-26.344-1.2643-11.588-1.0992-37.955-1.241-33.052-1.8185 14.076-1.6582 54.533-2.6455 65.074-2.6455h11.607l1.5666-3.2851c0.86161-1.8068 1.3047-3.547 0.98467-3.867-0.32003-0.32004-7.3612-0.58804-15.647-0.59557-13.448-0.0122-33.271-1.9352-34.098-2.7619-0.17841-0.1784-9.3209-1.2527 3.8275-1.8946 23.447-1.1447 61.126-1.5655 61.126-0.68263 0 0.24618-0.84502 2.5914-1.8778 5.2117s-1.6128 5.029-1.289 5.3529c1.2076 1.2076 22.53 0.60307 25.675-0.72786 4.0329-1.707 6.4346-4.4657 6.7022-7.6984l0.214-2.5859h12.357c7.8498 0 12.357 0.36394 12.357 0.9978 0 4.2897-7.1165 13.703-13.204 17.465l-3.3499 2.0704 1.9288 2.0594c4.5922 4.903 5.2428 13.192 1.6696 21.271-2.9458 6.661-8.402 12.127-15.666 15.693l-5.698 2.7978-67.349 0.57732z"/>
    <path d="m221.16 323.16c11.937-29.75 26.3-66.811 26.735-68.985l0.54934-2.7467-31.37-0.53237 14.196-16.918h40.373c22.205 0 40.364 0.32628 40.352 0.72506-0.0116 0.39878-1.4467 4.2054-3.189 8.459l-3.1679 7.734-31.455 0.53189-1.7426 4.0844c-0.95845 2.2464-7.2953 18.089-14.082 35.205l-12.339 31.121-12.226 2.9568c-6.7242 1.6263-12.733 2.9568-13.352 2.9568-0.75613 0-0.52076-1.5082 0.71666-4.592z"/>
    <path d="m116.85 331.86c0.39308-0.9305 2.9411-7.4549 5.6622-14.499 4.8274-12.496 5.0179-12.806 7.8478-12.795 4.8665 0.0205 5.7358 1.1018 4.3242 5.3789-0.67025 2.0309-2.2437 6.0103-3.4965 8.8432-1.2528 2.8328-2.2779 5.6059-2.2779 6.1623 0 0.69345 11.328 0.88638 36.011 0.61334 37.577-0.41567 42.384-0.91585 48.723-5.0695 1.3421-0.8794 2.634-1.4051 2.8709-1.1682 0.23687 0.23687-0.35805 2.5556-1.322 5.1527-3.1905 8.5957-6.2378 9.0724-58 9.0724-38.731 0-41.018-0.0959-40.343-1.6918z"/>
   </g>
  </g>
 </g>
</svg>
